<?xml version="1.0" encoding="iso-8859-1"?>
<svg version="1.1" id="Layer_1" xmlns="http://www.w3.org/2000/svg" xmlns:xlink="http://www.w3.org/1999/xlink" x="0px" y="0px" 
    viewBox="0 0 511.972 511.972" style="enable-background: new 0 0 511.972 511.972;" xml:space="preserve" fill='#141A33' opacity="1">
    <g>
        <path 
            d="m511.629 448.546-10.98-40.979c-1.429-5.335-6.914-8.505-12.247-7.071-5.335 1.43-8.501 6.912-7.071 12.247l4.807 17.94-70.168-40.026v-166.354c0-3.579-1.913-6.886-5.016-8.669l-144.984-83.356v-79.212l12.929 12.929c3.906 3.905 10.237 3.905 14.143 0 3.905-3.905 3.905-10.237 0-14.143l-30-30c-3.91-3.925-10.311-3.846-14.143 0l-30 30c-3.905 3.905-3.905 10.237 0 14.143 3.905 3.904 10.237 3.904 14.143 0l12.929-12.929v79.23l-144.011 83.352c-3.089 1.788-4.991 5.087-4.991 8.655v164.738l-71.155 40.434 4.815-17.973c1.429-5.335-1.737-10.818-7.072-12.247-5.336-1.432-10.818 1.736-12.247 7.071l-10.98 40.99c-1.39 5.19 1.718 10.966 7.371 12.326l40.681 10.901c5.378 1.441 10.83-1.78 12.248-7.071 1.43-5.334-1.736-10.817-7.071-12.247l-17.353-4.65 70.621-40.13 144.7 85.207c3.097 1.824 6.944 1.848 10.069.046l36.682-21.147c4.785-2.758 6.427-8.873 3.669-13.657s-8.873-6.427-13.658-3.669l-31.634 18.237-129.768-76.415 128.454-72.994 130.929 74.687-20.031 11.548c-4.785 2.758-6.427 8.873-3.669 13.657 2.759 4.786 8.875 6.429 13.658 3.669l30.17-17.393 69.383 39.579-17.377 4.656c-5.335 1.429-8.501 6.912-7.071 12.247 1.422 5.308 6.887 8.509 12.247 7.071l40.078-10.738c5.723-1.01 9.506-6.762 7.971-12.49zm-115.66-69.299-130-74.157v-149.742l130 74.741zm-279-149.177 129-74.664v148.966l-129 73.304z"
            
        />
        <circle 
            cx="331.97" 
            cy="438.923"
            r="10"
        />
    </g>
</svg>