<svg width="24" height="51" viewBox="0 0 24 51" fill="none" xmlns="http://www.w3.org/2000/svg">
<path d="M13.9985 13C13.9985 11.8954 13.103 11 11.9985 11C10.8939 11 9.99846 11.8954 9.99846 13H13.9985ZM9.99846 49.0003C9.99846 50.1049 10.8939 51.0003 11.9985 51.0003C13.103 51.0003 13.9985 50.1049 13.9985 49.0003H9.99846ZM9.99846 13L9.99846 49.0003H13.9985L13.9985 13H9.99846Z" fill="#252525"/>
<path d="M19.7574 13L4.24264 13C2.677 13 1.89293 11.1071 3 10L9.87868 3.12132C11.0503 1.94975 12.9497 1.94975 14.1213 3.12132L21 10C22.1071 11.1071 21.323 13 19.7574 13Z" fill="#252525" stroke="#252525" stroke-width="4" stroke-linecap="round" stroke-linejoin="round"/>
</svg>
